<?xml version="1.0" encoding="UTF-8"?>
<svg xmlns="http://www.w3.org/2000/svg" xmlns:xlink="http://www.w3.org/1999/xlink" width="192px" height="192px" viewBox="0 0 192 192" version="1.1">
<g id="surface1">
<path style=" stroke:none;fill-rule:nonzero;fill:rgb(92.941176%,40%,9.803922%);fill-opacity:1;" d="M 28 0 L 164 0 C 179.464844 0 192 12.535156 192 28 L 192 164 C 192 179.464844 179.464844 192 164 192 L 28 192 C 12.535156 192 0 179.464844 0 164 L 0 28 C 0 12.535156 12.535156 0 28 0 Z M 28 0 "/>
<path style=" stroke:none;fill-rule:nonzero;fill:rgb(62.352941%,27.843137%,8.235294%);fill-opacity:1;" d="M 8.070312 131.96875 L 52.949219 192 L 167.566406 192 C 177.808594 191.867188 190.914062 181.121094 192 167.28125 L 192 71.695312 L 170.980469 30.070312 Z M 8.070312 131.96875 "/>
<path style=" stroke:none;fill-rule:nonzero;fill:rgb(100%,100%,100%);fill-opacity:1;" d="M 76.058594 31.207031 L 170.980469 31.207031 L 170.980469 131.96875 L 8.070312 131.96875 L 8.070312 81.585938 L 64.351562 81.585938 L 76.058594 33.617188 Z M 76.058594 31.207031 "/>
<path style=" stroke:none;fill-rule:nonzero;fill:rgb(62.352941%,27.843137%,8.235294%);fill-opacity:1;" d="M 103.121094 39.355469 L 149.421875 39.355469 C 153.503906 39.355469 156.808594 42.664062 156.808594 46.746094 L 156.808594 74.199219 C 156.808594 78.277344 153.503906 81.585938 149.421875 81.585938 L 103.121094 81.585938 C 99.039062 81.585938 95.730469 78.277344 95.730469 74.199219 L 95.730469 46.746094 C 95.730469 42.664062 99.039062 39.355469 103.121094 39.355469 Z M 103.121094 39.355469 "/>
<path style="fill-rule:nonzero;fill:rgb(100%,100%,100%);fill-opacity:1;stroke-width:6;stroke-linecap:butt;stroke-linejoin:miter;stroke:rgb(62.352941%,27.843137%,8.235294%);stroke-opacity:1;stroke-miterlimit:4;" d="M 45.957001 -0.00058987 C 45.957001 -25.383519 25.38209 -45.958891 0.000250836 -45.958891 C -25.381589 -45.958891 -45.956499 -25.383519 -45.956499 -0.00058987 C -45.956499 25.382339 -25.381589 45.957711 0.000250836 45.957711 C 25.38209 45.957711 45.957001 25.382339 45.957001 -0.00058987 Z M 45.957001 -0.00058987 " transform="matrix(0.872764,0,0,0.804398,140.456812,128.367662)"/>
<path style=" stroke:none;fill-rule:nonzero;fill:rgb(62.352941%,27.843137%,8.235294%);fill-opacity:1;" d="M 164.796875 128.367188 C 164.796875 115.660156 153.898438 105.355469 140.457031 105.355469 C 127.015625 105.355469 116.117188 115.660156 116.117188 128.367188 C 116.117188 141.078125 127.015625 151.378906 140.457031 151.378906 C 153.898438 151.378906 164.796875 141.078125 164.796875 128.367188 Z M 164.796875 128.367188 "/>
<path style="fill-rule:nonzero;fill:rgb(100%,100%,100%);fill-opacity:1;stroke-width:6;stroke-linecap:butt;stroke-linejoin:miter;stroke:rgb(62.352941%,27.843137%,8.235294%);stroke-opacity:1;stroke-miterlimit:4;" d="M 45.959687 -0.000503578 C 45.959687 -25.38037 25.383552 -45.955345 0.00213187 -45.955345 C -25.379288 -45.955345 -45.955423 -25.38037 -45.955423 -0.000503578 C -45.955423 25.379363 -25.379288 45.954338 0.00213187 45.954338 C 25.383552 45.954338 45.959687 25.379363 45.959687 -0.000503578 Z M 45.959687 -0.000503578 " transform="matrix(0.590983,0,0,0.544692,48.362021,133.859649)"/>
<path style=" stroke:none;fill-rule:nonzero;fill:rgb(62.352941%,27.843137%,8.235294%);fill-opacity:1;" d="M 64.859375 133.859375 C 64.859375 125.382812 57.472656 118.515625 48.363281 118.515625 C 39.25 118.515625 31.863281 125.382812 31.863281 133.859375 C 31.863281 142.335938 39.25 149.207031 48.363281 149.207031 C 57.472656 149.207031 64.859375 142.335938 64.859375 133.859375 Z M 64.859375 133.859375 "/>
<path style=" stroke:none;fill-rule:nonzero;fill:rgb(100%,100%,100%);fill-opacity:1;" d="M 21.203125 65.820312 L 28.824219 65.820312 L 28.824219 85.132812 L 21.203125 85.132812 Z M 21.203125 65.820312 "/>
<path style=" stroke:none;fill-rule:nonzero;fill:rgb(100%,100%,100%);fill-opacity:1;" d="M 23.289062 54.074219 L 26.738281 54.074219 L 26.738281 66.867188 L 23.289062 66.867188 Z M 23.289062 54.074219 "/>
<path style=" stroke:none;fill-rule:nonzero;fill:rgb(92.941176%,40%,9.803922%);fill-opacity:1;" d="M 18.941406 89.570312 L 38.707031 89.570312 C 39.332031 89.570312 39.84375 89.78125 39.84375 90.042969 L 39.84375 90.507812 C 39.84375 90.769531 39.332031 90.980469 38.707031 90.980469 L 18.941406 90.980469 C 18.316406 90.980469 17.804688 90.769531 17.804688 90.507812 L 17.804688 90.042969 C 17.804688 89.78125 18.316406 89.570312 18.941406 89.570312 Z M 18.941406 89.570312 "/>
<path style=" stroke:none;fill-rule:nonzero;fill:rgb(92.941176%,40%,9.803922%);fill-opacity:1;" d="M 18.941406 87.195312 L 38.707031 87.195312 C 39.332031 87.195312 39.84375 87.40625 39.84375 87.667969 L 39.84375 88.132812 C 39.84375 88.394531 39.332031 88.605469 38.707031 88.605469 L 18.941406 88.605469 C 18.316406 88.605469 17.804688 88.394531 17.804688 88.132812 L 17.804688 87.667969 C 17.804688 87.40625 18.316406 87.195312 18.941406 87.195312 Z M 18.941406 87.195312 "/>
<path style=" stroke:none;fill-rule:nonzero;fill:rgb(92.941176%,40%,9.803922%);fill-opacity:1;" d="M 18.941406 84.835938 L 38.707031 84.835938 C 39.332031 84.835938 39.84375 85.050781 39.84375 85.308594 L 39.84375 85.773438 C 39.84375 86.035156 39.332031 86.246094 38.707031 86.246094 L 18.941406 86.246094 C 18.316406 86.246094 17.804688 86.035156 17.804688 85.773438 L 17.804688 85.308594 C 17.804688 85.050781 18.316406 84.835938 18.941406 84.835938 Z M 18.941406 84.835938 "/>
<path style="fill-rule:nonzero;fill:rgb(100%,100%,100%);fill-opacity:1;stroke-width:4;stroke-linecap:butt;stroke-linejoin:miter;stroke:rgb(92.941176%,40%,9.803922%);stroke-opacity:1;stroke-miterlimit:4;" d="M 5.003122 0.00117143 L 181.28393 0.00117143 C 184.043439 0.00117143 186.28513 2.2416 186.28513 4.997465 L 186.28513 18.364439 C 186.28513 21.127176 184.043439 23.367605 181.28393 23.367605 L 5.003122 23.367605 C 2.237059 23.367605 0.00192271 21.127176 0.00192271 18.364439 L 0.00192271 4.997465 C 0.00192271 2.2416 2.237059 0.00117143 5.003122 0.00117143 Z M 5.003122 0.00117143 " transform="matrix(0.595951,0,0,0.56839,67.580885,16.788397)"/>
</g>
</svg>
