<?xml version="1.0" encoding="UTF-8"?>
<svg xmlns="http://www.w3.org/2000/svg" xmlns:xlink="http://www.w3.org/1999/xlink" width="512px" height="512px" viewBox="0 0 512 512" version="1.1">
<g id="surface1">
<path style=" stroke:none;fill-rule:nonzero;fill:rgb(92.941176%,40%,9.803922%);fill-opacity:1;" d="M 74.664062 0 L 437.335938 0 C 478.574219 0 512 33.425781 512 74.664062 L 512 437.335938 C 512 478.574219 478.574219 512 437.335938 512 L 74.664062 512 C 33.425781 512 0 478.574219 0 437.335938 L 0 74.664062 C 0 33.425781 33.425781 0 74.664062 0 Z M 74.664062 0 "/>
<path style=" stroke:none;fill-rule:nonzero;fill:rgb(62.352941%,27.843137%,8.235294%);fill-opacity:1;" d="M 21.523438 351.914062 L 141.203125 512 L 446.839844 512 C 474.152344 511.648438 509.105469 482.988281 512 446.082031 L 512 191.1875 L 455.949219 80.183594 Z M 21.523438 351.914062 "/>
<path style=" stroke:none;fill-rule:nonzero;fill:rgb(100%,100%,100%);fill-opacity:1;" d="M 202.820312 83.214844 L 455.949219 83.214844 L 455.949219 351.914062 L 21.523438 351.914062 L 21.523438 217.566406 L 171.601562 217.566406 L 202.820312 89.640625 Z M 202.820312 83.214844 "/>
<path style=" stroke:none;fill-rule:nonzero;fill:rgb(62.352941%,27.843137%,8.235294%);fill-opacity:1;" d="M 274.984375 104.945312 L 398.457031 104.945312 C 409.339844 104.945312 418.160156 113.769531 418.160156 124.652344 L 418.160156 197.859375 C 418.160156 208.742188 409.339844 217.566406 398.457031 217.566406 L 274.984375 217.566406 C 264.101562 217.566406 255.28125 208.742188 255.28125 197.859375 L 255.28125 124.652344 C 255.28125 113.769531 264.101562 104.945312 274.984375 104.945312 Z M 274.984375 104.945312 "/>
<path style="fill-rule:nonzero;fill:rgb(100%,100%,100%);fill-opacity:1;stroke-width:6;stroke-linecap:butt;stroke-linejoin:miter;stroke:rgb(62.352941%,27.843137%,8.235294%);stroke-opacity:1;stroke-miterlimit:4;" d="M 45.95756 -0.00058987 C 45.95756 -25.380484 25.38209 -45.956463 -0.00030863 -45.956463 C -25.381029 -45.956463 -45.956499 -25.380484 -45.956499 -0.00058987 C -45.956499 25.381125 -25.381029 45.957104 -0.00030863 45.957104 C 25.38209 45.957104 45.95756 25.381125 45.95756 -0.00058987 Z M 45.95756 -0.00058987 " transform="matrix(2.327369,0,0,2.14506,374.5515,342.313765)"/>
<path style=" stroke:none;fill-rule:nonzero;fill:rgb(62.352941%,27.843137%,8.235294%);fill-opacity:1;" d="M 439.457031 342.3125 C 439.457031 308.425781 410.398438 280.949219 374.550781 280.949219 C 338.703125 280.949219 309.644531 308.425781 309.644531 342.3125 C 309.644531 376.203125 338.703125 403.675781 374.550781 403.675781 C 410.398438 403.675781 439.457031 376.203125 439.457031 342.3125 Z M 439.457031 342.3125 "/>
<path style="fill-rule:nonzero;fill:rgb(100%,100%,100%);fill-opacity:1;stroke-width:6;stroke-linecap:butt;stroke-linejoin:miter;stroke:rgb(62.352941%,27.843137%,8.235294%);stroke-opacity:1;stroke-miterlimit:4;" d="M 45.956382 0.00128929 C 45.956382 -25.38037 25.381073 -45.956241 -0.000346784 -45.956241 C -25.381767 -45.956241 -45.957076 -25.38037 -45.957076 0.00128929 C -45.957076 25.380259 -25.381767 45.956131 -0.000346784 45.956131 C 25.381073 45.956131 45.956382 25.380259 45.956382 0.00128929 Z M 45.956382 0.00128929 " transform="matrix(1.575956,0,0,1.452513,128.96539,356.959065)"/>
<path style=" stroke:none;fill-rule:nonzero;fill:rgb(62.352941%,27.843137%,8.235294%);fill-opacity:1;" d="M 172.960938 356.960938 C 172.960938 334.359375 153.261719 316.039062 128.964844 316.039062 C 104.667969 316.039062 84.96875 334.359375 84.96875 356.960938 C 84.96875 379.558594 104.667969 397.878906 128.964844 397.878906 C 153.261719 397.878906 172.960938 379.558594 172.960938 356.960938 Z M 172.960938 356.960938 "/>
<path style=" stroke:none;fill-rule:nonzero;fill:rgb(100%,100%,100%);fill-opacity:1;" d="M 56.539062 175.519531 L 76.863281 175.519531 L 76.863281 227.019531 L 56.539062 227.019531 Z M 56.539062 175.519531 "/>
<path style=" stroke:none;fill-rule:nonzero;fill:rgb(100%,100%,100%);fill-opacity:1;" d="M 62.105469 144.195312 L 71.296875 144.195312 L 71.296875 178.316406 L 62.105469 178.316406 Z M 62.105469 144.195312 "/>
<path style=" stroke:none;fill-rule:nonzero;fill:rgb(92.941176%,40%,9.803922%);fill-opacity:1;" d="M 50.511719 238.855469 L 103.214844 238.855469 C 104.890625 238.855469 106.246094 239.421875 106.246094 240.117188 L 106.246094 241.355469 C 106.246094 242.050781 104.890625 242.613281 103.214844 242.613281 L 50.511719 242.613281 C 48.839844 242.613281 47.480469 242.050781 47.480469 241.355469 L 47.480469 240.117188 C 47.480469 239.421875 48.839844 238.855469 50.511719 238.855469 Z M 50.511719 238.855469 "/>
<path style=" stroke:none;fill-rule:nonzero;fill:rgb(92.941176%,40%,9.803922%);fill-opacity:1;" d="M 50.511719 232.523438 L 103.214844 232.523438 C 104.890625 232.523438 106.246094 233.085938 106.246094 233.785156 L 106.246094 235.019531 C 106.246094 235.71875 104.890625 236.28125 103.214844 236.28125 L 50.511719 236.28125 C 48.839844 236.28125 47.480469 235.71875 47.480469 235.019531 L 47.480469 233.785156 C 47.480469 233.085938 48.839844 232.523438 50.511719 232.523438 Z M 50.511719 232.523438 "/>
<path style=" stroke:none;fill-rule:nonzero;fill:rgb(92.941176%,40%,9.803922%);fill-opacity:1;" d="M 50.511719 226.234375 L 103.214844 226.234375 C 104.890625 226.234375 106.246094 226.796875 106.246094 227.492188 L 106.246094 228.730469 C 106.246094 229.425781 104.890625 229.992188 103.214844 229.992188 L 50.511719 229.992188 C 48.839844 229.992188 47.480469 229.425781 47.480469 228.730469 L 47.480469 227.492188 C 47.480469 226.796875 48.839844 226.234375 50.511719 226.234375 Z M 50.511719 226.234375 "/>
<path style="fill-rule:nonzero;fill:rgb(100%,100%,100%);fill-opacity:1;stroke-width:4;stroke-linecap:butt;stroke-linejoin:miter;stroke:rgb(92.941176%,40%,9.803922%);stroke-opacity:1;stroke-miterlimit:4;" d="M 4.999025 0.000312373 L 181.28393 0.000312373 C 184.044258 0.000312373 186.283491 2.237305 186.283491 5.000042 L 186.283491 18.365298 C 186.283491 21.125458 184.044258 23.365028 181.28393 23.365028 L 4.999025 23.365028 C 2.238698 23.365028 -0.000535284 21.125458 -0.000535284 18.365298 L -0.000535284 5.000042 C -0.000535284 2.237305 2.238698 0.000312373 4.999025 0.000312373 Z M 4.999025 0.000312373 " transform="matrix(1.589202,0,0,1.515707,180.215694,44.769058)"/>
</g>
</svg>
