<svg id="eUwF9OB1ihq1" xmlns="http://www.w3.org/2000/svg" xmlns:xlink="http://www.w3.org/1999/xlink" viewBox="0 0 512 512" shape-rendering="geometricPrecision" text-rendering="geometricPrecision"><rect width="452.594372" height="452.594372" rx="66" ry="66" transform="matrix(1.131256 0 0 1.131256-.000098-.000049)" fill="#ed6619" stroke-width="0"/><path d="M21.523196,351.915772L141.201449,512.000049l305.638445-.00005c27.314395-.352858,62.264952-29.010766,65.160105-65.919869l-.000001-254.890932L455.947604,80.182591L21.523196,351.915772Z" transform="translate(.000004 0.000004)" fill="#9f4715" stroke-width="1.024"/><g transform="matrix(1.515707 0 0 1.515707-129.70889-125.229905)"><g transform="translate(.000008 0)"><path d="M220.48141,134.19522h.98725v0h158.30852v183.93286h-273.38615v-91.96643h94.44421l19.64617-87.56609v-4.40034Z" transform="matrix(1.048389 0 0 0.96382-11.762597 8.182528)" fill="#fff" stroke-width="0"/><rect width="107.46179" height="74.300394" rx="13" ry="13" transform="translate(254 151.861256)" fill="#9f4715" stroke-width="0"/></g><g transform="matrix(1.277371 0 0 1.277371-93.318398-66.871901)"><ellipse rx="45.956842" ry="45.956842" transform="matrix(1.202079 0 0 1.107917 333.503958 293.836038)" fill="#fff" stroke="#9f4715" stroke-width="6"/><ellipse rx="29.56738" ry="29.56738" transform="matrix(1.133827 0 0 1.071919 333.503958 293.836038)" fill="#9f4715" stroke-width="0"/></g><g transform="matrix(1.295845 0 0 1.295845-45.078768-85.383967)"><ellipse rx="45.956842" ry="45.956842" transform="matrix(.802372 0 0 0.739523 166.486906 311.389136)" fill="#fff" stroke="#9f4715" stroke-width="6"/><ellipse rx="20.834393" ry="20.834393" transform="matrix(1.075131 0 0 1 166.486906 311.389136)" fill="#9f4715" stroke-width="0"/></g><g transform="translate(-.000003-.000017)"><g transform="translate(0 0.000001)"><rect width="13.409376" height="21.503533" rx="0" ry="0" transform="matrix(1 0 0 1.580073 122.878835 198.421307)" fill="#fff" stroke-width="0"/><rect width="12.987251" height="37.150197" rx="0" ry="0" transform="matrix(.466872 0 0 0.605936 126.551831 177.756148)" fill="#fff" stroke-width="0"/></g></g><g transform="translate(.000007 0.000001)"><rect width="38.770043" height="5.964622" rx="2" ry="2" transform="matrix(1 0 0 0.415636 116.903187 240.208857)" fill="#ed6619" stroke-width="0"/><rect width="38.770043" height="5.964622" rx="2" ry="2" transform="matrix(1 0 0 0.415636 116.903187 236.030724)" fill="#ed6619" stroke-width="0"/><rect width="38.770043" height="5.964622" rx="2" ry="2" transform="matrix(1 0 0 0.415636 116.903187 231.880689)" fill="#ed6619" stroke-width="0"/></g><rect width="186.283898" height="23.364369" rx="5" ry="5" transform="matrix(1.048489 0 0 1 204.475261 112.158196)" fill="#fff" stroke="#ed6619" stroke-width="4"/></g></svg>
